HIERARCHY
ROOT Hips
{
  OFFSET 0 0 0
  CHANNELS 6 Xposition Yposition Zposition Zrotation Xrotation Yrotation
  JOINT Spine
  {
    OFFSET 0.00000000 0.00000000 0.00000000
    CHANNELS 3 Zrotation Xrotation Yrotation
    JOINT Spine1
    {
      OFFSET 0.19000000 0.00000000 0.00000000
      CHANNELS 3 Zrotation Xrotation Yrotation
      JOINT Neck
      {
        OFFSET 0.22500000 0.00600000 0.00000000
        CHANNELS 3 Zrotation Xrotation Yrotation
        JOINT Head
        {
          OFFSET 0.14000000 0.00030878 0.00000000
          CHANNELS 3 Zrotation Xrotation Yrotation
          End Site
          {
            OFFSET 0.17000000 0.00000000 0.00000000
          }
        }
      }
      JOINT LeftShoulder
      {
        OFFSET 0.19800000 0.03700000 0.04300000
        CHANNELS 3 Zrotation Xrotation Yrotation
        JOINT LeftArm
        {
          OFFSET 0.08000000 0.00000000 0.00000000
          CHANNELS 3 Zrotation Xrotation Yrotation
          JOINT LeftForeArm
          {
            OFFSET 0.15200000 0.00000000 0.00000000
            CHANNELS 3 Zrotation Xrotation Yrotation
            JOINT LeftHand
            {
              OFFSET 0.17800000 0.00000000 0.00000000
              CHANNELS 3 Zrotation Xrotation Yrotation
              End Site
              {
                OFFSET 0.07200000 0.00000000 0.00000000
              }
            }
          }
        }
      }
      JOINT RightShoulder
      {
        OFFSET 0.19800000 0.03700000 -0.04300000
        CHANNELS 3 Zrotation Xrotation Yrotation
        JOINT RightArm
        {
          OFFSET 0.08000000 0.00000000 0.00151654
          CHANNELS 3 Zrotation Xrotation Yrotation
          JOINT RightForeArm
          {
            OFFSET 0.15200000 0.00000000 0.00000000
            CHANNELS 3 Zrotation Xrotation Yrotation
            JOINT RightHand
            {
              OFFSET 0.17800000 0.00000000 0.00000000
              CHANNELS 3 Zrotation Xrotation Yrotation
              End Site
              {
                OFFSET 0.07200000 0.00000000 0.00000000
              }
            }
          }
        }
      }
    }
  }
  JOINT LeftUpLeg
  {
    OFFSET 0.05984250 -0.07666000 0.04788790
    CHANNELS 3 Zrotation Xrotation Yrotation
    JOINT LeftLeg
    {
      OFFSET 0.16000000 0.00000000 0.00000000
      CHANNELS 3 Zrotation Xrotation Yrotation
      JOINT LeftFoot
      {
        OFFSET 0.18000000 0.00000000 0.00000000
        CHANNELS 3 Zrotation Xrotation Yrotation
        End Site
        {
          OFFSET 0.00000000 -0.10800000 0.00000000
        }
      }
    }
  }
  JOINT RightUpLeg
  {
    OFFSET 0.05984250 -0.07665980 -0.04788790
    CHANNELS 3 Zrotation Xrotation Yrotation
    JOINT RightLeg
    {
      OFFSET 0.16000000 0.00000000 0.00000000
      CHANNELS 3 Zrotation Xrotation Yrotation
      JOINT RightFoot
      {
        OFFSET 0.18000000 0.00000000 0.00000000
        CHANNELS 3 Zrotation Xrotation Yrotation
        End Site
        {
          OFFSET 0.00000000 -0.10800000 0.00000000
        }
      }
    }
  }
  JOINT Tail
  {
    OFFSET 0.06836960 -0.00722574 0.00000000
    CHANNELS 3 Zrotation Xrotation Yrotation
    JOINT Tail1
    {
      OFFSET 0.12000000 0.00000000 0.00000000
      CHANNELS 3 Zrotation Xrotation Yrotation
      End Site
      {
        OFFSET 0.12000000 0.00000000 0.00000000
      }
    }
  }
}
MOTION
Frames:	14
Frame Time:	0.0166667
-8.3142942 0.4454120 -0.2778141 9.01601 17.9638 -152.710 -154.589 -4.90026 -7.70654 7.46454 -0.299996 -18.2473 -17.1686 -0.000994924 -11.0414 -1.13507 88.5884 6.28664 -107.096 -32.1631 -137.852 118.567 -34.7129 -144.13 -38.3454 -5.39396 -2.2323 -7.94734 1.64808 -5.16478 72.7961 -34.2613 45.8175 60.9098 -39.8282 -41.7082 -91.7898 -7.84893 -14.1984 -24.5203 -1.68788 11.0383 -138.449 -9.57173 -12.2239 102.478 17.7101 3.00651 24.5031 -3.15977 -5.84124 -129.527 2.79402 6.26115 117.512 -7.77417 -3.77357 4.8086 -1.74514 -1.79597 29.6363 8.31811 -77.3297 4.7288 -12.7185 -3.92909 
-8.2849993 0.4439790 -0.2965263 12.0773 20.8014 -154.380 -148.628 -3.72059 -5.95323 5.10186 0.877588 -16.8808 -19.4143 0.538181 -13.6012 -32.6143 88.3485 39.9693 -107.606 -32.6085 -138.435 114.703 -30.8498 -141.333 -46.4214 -38.9479 0.0561214 14.1434 5.34415 -17.374 73.4841 -32.895 45.0973 58.1444 -46.3215 -41.7936 -87.5838 -13.6686 -12.8893 -26.7786 -2.38509 13.7382 -133.818 -10.154 -11.5612 92.2588 20.0913 5.7699 29.1135 -3.72374 -6.86076 -132.409 3.07758 8.31623 113.444 -8.46523 -4.18855 6.2199 -1.68342 -1.8069 34.8378 8.12534 -86.8097 5.29213 -14.9148 -4.32675 
-8.2576954 0.4418070 -0.3145613 14.9755 22.7248 -155.475 -144.234 -2.31487 -3.17857 3.07046 1.76602 -17.0322 -21.5244 1.42842 -15.3102 -61.6859 87.7857 69.8136 -108.46 -33.9138 -138.165 116.059 -37.593 -139.946 -52.9553 -64.1245 7.84989 30.3072 2.82564 -35.9957 74.0998 -31.5115 44.0443 54.68 -50.8615 -44.8847 -80.884 -17.1279 -10.9315 -28.1225 -3.67873 17.1246 -128.187 -10.2137 -11.2426 80.8206 22.6763 8.48154 36.0473 -4.3763 -7.61096 -134.845 3.34827 9.32255 106.601 -8.72082 -4.90735 12.0408 -1.35525 -1.58855 35.1842 8.89582 -93.5031 6.70374 -12.9702 -6.76751 
-8.2325439 0.4381080 -0.3318045 17.0711 23.4511 -155.487 -142.426 -0.829546 0.543459 1.76248 2.22947 -18.6556 -23.5115 1.53867 -14.988 -79.4747 86.4494 86.3207 -110.235 -36.7656 -137.366 116.058 -43.548 -141.603 36.1273 -79.3194 113.155 28.1446 1.11002 -60.4678 74.783 -30.0039 42.8291 48.8028 -52.325 -51.7389 -72.1944 -19.4681 -8.34144 -27.03 -3.0943 16.0142 -122.375 -9.84879 -10.5905 72.2945 20.3557 9.08559 43.2278 -4.31896 -7.21387 -136.807 2.9686 8.83562 96.4881 -9.15198 -5.86274 21.9683 -0.790479 -1.21586 28.7469 11.7247 -96.6548 8.01245 -4.88564 -11.9431 
-8.2109875 0.4302580 -0.3485407 19.0530 22.7958 -154.695 -142.351 1.20456 2.58108 0.101056 3.50847 -17.5542 -23.6481 1.1809 -15.6351 -90.5596 83.7473 94.5693 -111.021 -38.0294 -137.034 114.688 -43.6954 -142.233 48.6091 -67.2009 140.048 22.6518 3.1321 -67.431 75.4711 -28.8241 42.3415 39 -54.7007 -60.6004 -62.2762 -19.8352 -4.96462 -24.1851 -2.53846 14.9144 -116.33 -7.03251 -10.9121 75.8559 20.9342 6.65417 31.324 -4.07459 -7.54501 -137.53 1.34661 6.00996 85.8698 -11.8138 -6.26204 32.1181 0.194694 -0.455618 16.2657 15.7051 -94.945 8.99078 9.41734 -19.3413 
-8.1874440 0.4152920 -0.3676080 20.5751 21.2453 -153.320 -143.818 3.00663 3.25834 -2.43805 4.86019 -14.5264 -22.3121 0.462301 -16.4758 -99.1413 78.8009 102.45 -111.193 -38.3353 -136.909 114.445 -42.5736 -141.282 37.9329 -63.8362 140.839 24.4917 2.12748 -64.2328 75.9865 -28.0603 42.2671 27.9861 -56.5292 -70.7766 -52.8046 -16.8891 -3.10127 -17.0371 0.257523 7.25742 -113.203 -5.41559 -13.9326 88.3145 21.7082 5.00909 14.7143 -3.60617 -8.01264 -138.537 -0.413392 1.81236 80.1856 -16.2282 -5.58884 38.3653 1.3257 0.491473 -1.69652 19.2219 -87.9349 10.145 29.37 -26.3791 
-8.1647238 0.4001280 -0.3855874 21.2583 20.0567 -151.502 -144.979 3.94589 3.70739 -6.96096 5.31688 -10.8119 -19.6209 -0.627487 -15.6039 -103.219 74.5746 107.283 -111.644 -38.8488 -137.106 116.241 -39.447 -137.907 22.7896 -67.1701 134.248 26.7454 0.851903 -57.7928 75.9412 -27.7183 41.1881 22.3343 -58.4328 -75.3424 -49.5086 -14.0839 -2.81487 -5.17192 2.99645 -5.75916 -110.15 -3.67184 -14.0798 93.2768 22.5621 3.31317 3.69679 -3.337 -8.20554 -138.059 -0.016929 -1.40312 79.5001 -15.3675 -4.71656 43.3514 1.2233 -0.0612754 -18.4941 19.8965 -78.1411 11.1277 48.2831 -30.1233 
-8.1446081 0.3860560 -0.4014215 20.9560 19.0135 -149.855 -146.456 3.90919 3.51992 -11.966 4.65437 -6.69853 -15.8469 -1.7117 -13.6243 -105.596 71.1812 111.933 -111.92 -39.5978 -136.453 121.364 -33.6538 -131.256 -0.00251377 -72.6589 114.311 29.3937 -0.581693 -50.6868 75.8021 -27.6077 40.3655 20.3787 -63.5527 -74.0654 -58.1715 -10.5676 -3.5834 12.054 2.39222 -25.2333 -110.281 -1.24581 -14.1171 102.3 22.4633 1.08719 -1.92543 -3.19856 -8.43845 -134.799 1.90275 -4.06046 84.5827 -8.96695 -4.34121 33.01 -0.553176 -1.46755 -32.8088 16.9511 -66.5053 12.3292 63.8017 -30.6612 
-8.1229465 0.3748210 -0.4162636 18.9791 17.8783 -148.139 -148.694 3.16247 3.4515 -16.8936 3.12115 -3.37091 -10.8461 -2.56249 -10.8296 -108.107 68.8702 114.858 -112.023 -40.1955 -135.665 126.956 -26.903 -124.749 -44.9877 -73.23 66.8937 30.6258 -0.984178 -41.9103 75.8063 -27.2318 39.3469 25.8574 -69.4929 -63.6775 -75.7085 3.83943 -4.6337 39.2946 -8.43428 -39.6955 -110.519 1.02439 -13.2857 108.498 22.235 -0.559677 -5.61865 -3.11615 -8.52176 -130.026 4.17191 -4.90136 88.9276 -11.246 -5.37772 13.1619 -1.39729 -1.80145 -39.9161 11.4441 -55.737 5.50944 69.6642 -20.8699 
-8.0953056 0.3703730 -0.4291603 14.7471 17.8085 -147.577 -151.706 0.5549 2.19318 -20.6902 -0.0469386 -0.45714 -5.47306 -3.18439 -7.82649 -110.317 66.7957 116.923 -111.931 -40.6408 -134.689 131.698 -20.3313 -119.746 -76.7917 -57.0773 27.9311 30.8159 0.508468 -23.6949 75.5993 -27.6226 39.6481 31.3666 -66.831 -57.0047 -88.5698 36.1596 -3.61544 83.6486 -15.6374 -18.3921 -111.081 0.352991 -12.6897 110.716 23.0662 -0.666687 -3.74072 -3.27592 -8.85949 -129.583 4.33717 -2.35456 90.4615 -12.3054 -5.62677 6.63515 -1.5907 -1.81132 -43.0558 5.30438 -42.4961 -5.93452 66.4546 -5.70972 
-8.0645541 0.3719050 -0.4409014 10.4774 17.3811 -148.051 -154.762 -2.35781 -0.174335 -23.2232 -3.24778 2.08107 0.274275 -2.96259 -5.33782 -113.265 65.8103 118.842 -111.839 -40.3254 -135.001 135.541 -13.1216 -118.999 -78.5501 -28.1359 15.3592 17.8162 1.67335 -0.886839 75.3847 -28.1407 40.2523 37.8367 -57.0463 -52.0575 -84.716 75.0159 -17.88 91.0722 15.5214 25.5603 -111.503 -1.3256 -13.3548 110.527 24.0064 -0.157858 2.46647 -3.65463 -9.31091 -128.637 4.29198 -1.42259 92.1398 -13.672 -5.56487 3.32053 -1.73956 -1.8603 -41.0976 -0.702308 -28.8363 -10.1188 52.0828 3.12308 
-8.0302744 0.3768090 -0.4552096 6.33455 15.5743 -149.332 -159.33 -4.6839 -2.93611 -23.676 -5.5479 3.73055 5.77359 -2.02246 -3.51137 -117.024 65.4183 120.77 -111.759 -39.6233 -136.016 139.466 -6.05142 -119.008 -67.9191 -13.3132 11.2652 6.10021 0.59526 1.67916 75.1204 -28.5804 40.4517 43.2167 -41.7489 -48.8191 21.6293 75.6173 -131.07 43.853 18.8144 73.1763 -112.163 -3.25616 -14.2212 108.73 22.768 0.491949 11.3841 -3.98284 -9.22991 -126.177 3.86016 -2.12768 91.1304 -14.9483 -5.489 0.979063 -1.96089 -2.09281 -36.8409 -5.64866 -15.4223 -7.33759 32.8241 6.08139 
-7.9932654 0.3870320 -0.4715608 3.16748 12.5801 -151.719 -164.446 -6.15974 -6.64495 -22.0552 -6.96042 5.55229 10.3215 -0.837446 -2.79432 -120.447 65.2475 123.04 -111.232 -39.1175 -135.607 141.441 -1.53686 -117.91 -57.5661 -6.07094 7.94526 1.80379 0.102562 2.76534 74.6463 -29.0135 39.893 48.2953 -25.3717 -48.5174 -24.5754 76.245 -88.854 43.5834 13.203 58.3534 -111.422 -4.16983 -14.7478 103.581 21.0156 1.17021 23.457 -4.25495 -8.72251 -123.548 4.12402 -3.53555 89.3426 -15.3996 -5.33865 4.2872 -1.73131 -1.66423 -31.1226 -9.32879 -2.55059 -3.98495 18.8171 6.76828 
-7.9534016 0.4022120 -0.4882401 0.59086 9.82279 -154.113 -169.127 -6.92792 -9.79934 -19.0831 -7.68547 6.77069 13.6525 -0.147162 -3.23114 -122.292 63.2728 124.75 -110.957 -38.8866 -135.327 145.031 -1.71572 -118.863 -48.0761 0.886231 4.6725 -3.92515 -0.271239 1.36344 73.5309 -30.1539 38.9829 54.8369 -10.1413 -49.4045 -59.6112 69.8105 -56.3396 46.2526 7.83572 37.4224 -108.613 -4.47082 -13.3731 94.9583 18.5264 1.74304 36.6549 -4.20326 -7.81322 -120.098 4.46367 -4.18844 86.0094 -16.4403 -5.21566 12.2573 -0.976065 -0.622911 -24.7939 -10.6298 10.3358 -1.86154 9.88266 7.2854 
